<svg xmlns="http://www.w3.org/2000/svg" version="1.1" xmlns:xlink="http://www.w3.org/1999/xlink" xmlns:svgjs="http://svgjs.dev/svgjs" width="100%" height="100%" viewBox="0 0 1000 600"><rect width="1000" height="600" x="0" y="0" fill="rgba(213, 208, 208, 0.65)"/><g><rect width="333.3333333333333" height="333.3333333333333" rx="13.333333333333334" ry="13.333333333333334" y="187.32040301943448" fill="#63c9c9" transform="matrix(0.7571251283055478,0,0,0.7571251283055478,0,31.987471412261016)" x="165.09820556640625"/><path d="M287.98532273926617 279.193923514905L332.01605374675654 395.8014836193056L377.5538768894026 279.193923514905Q382.01605164251066 279.40077929816164 386.92148878831165 279.40077929816164Q391.8269259341125 279.40077929816164 395.22527094475777 279.40077929816164L395.22527094475777 279.40077929816164Q396.90966803699064 279.40077929816164 401.4900460948168 279.312126819623Q406.070424152643 279.193923514905 411.50777616967537 279.193923514905Q416.91557736052823 279.193923514905 421.49595541835436 279.0757202101869Q426.0763334761806 278.98706773164827 427.76073056841335 278.98706773164827L427.76073056841335 278.98706773164827Q428.41084874436285 282.1785569590369 427.76073056841335 285.5769019696821L427.76073056841335 285.5769019696821L427.3470190019001 285.5769019696821Q417.56569553647773 286.64073171214494 413.1035207833696 287.5863581498897Q408.611795204082 288.561535413814 407.66616876633725 291.8416771197411Q406.7205423285925 295.15136965184774 406.7205423285925 302.59817784908773L406.7205423285925 302.59817784908773L408.4049394208254 401.9480554646466Q408.4049394208254 408.56744052885983 408.84820181351824 412.37949710601845Q409.2619133800316 416.22110450935645 411.1827170817006 417.9055016015893Q413.1035207833696 419.6194495200017 417.3588397532211 420.3582201744898Q421.6141587230725 421.09699082897794 429.47467848682584 421.74710900492744L429.47467848682584 421.74710900492744Q430.12479666277534 424.93859823231605 429.47467848682584 428.3369432429612L429.47467848682584 428.3369432429612Q427.76073056841335 428.3369432429612 423.20990333676673 428.2482907644227Q418.6295252789406 428.13008745970455 413.19217326190824 428.13008745970455Q407.7843720710554 428.13008745970455 403.2039940132292 428.01188415498643Q398.623615955403 427.9232316764479 396.90966803699064 427.9232316764479L396.90966803699064 427.9232316764479Q395.22527094475777 427.9232316764479 390.76309619164965 428.01188415498643Q386.2713706123621 428.13008745970455 380.9522219000478 428.13008745970455Q375.63307318773354 428.13008745970455 371.1708984346255 428.2482907644227Q366.70872368151737 428.3369432429612 364.99477576310505 428.3369432429612L364.99477576310505 428.3369432429612Q364.7879199798483 425.1454540155727 364.99477576310505 421.74710900492744L364.99477576310505 421.74710900492744L365.43803815579787 421.74710900492744Q374.8056500547069 420.68327926246457 379.0609690245583 419.7376528247198Q383.3162879944097 418.76247556079556 384.2619144321545 415.48233385486844Q385.2075408698993 412.1726413227617 385.2075408698993 404.72583312552183L385.2075408698993 404.72583312552183L383.3162879944097 290.68919489873974L329.6815384785741 427.9232316764479Q328.203997169598 428.5437990262179 325.01250794220937 428.78020563565406Q321.82101871482087 428.9870614189108 319.4865034466385 428.9870614189108L319.4865034466385 428.9870614189108L269.04324315819144 295.15136965184774L265.6448981475462 404.72583312552183Q265.4380423642896 411.75892975624845 266.2950163234957 414.83221567891894Q267.1224394565224 417.9055016015893 271.3777584263738 419.20573795348844Q275.63307739622525 420.47642347920794 285.6508074710838 421.74710900492744L285.6508074710838 421.74710900492744Q286.50778143029 425.1454540155727 285.6508074710838 428.3369432429612L285.6508074710838 428.3369432429612Q283.52314798615805 428.3369432429612 278.29265175238237 428.2482907644227Q273.0917063447862 428.13008745970455 267.89076093719 428.01188415498643Q262.6602647034143 427.9232316764479 260.32574943523196 427.9232316764479L260.32574943523196 427.9232316764479Q259.05506390951246 427.9232316764479 255.33165981089243 428.01188415498643Q251.60825571227244 428.13008745970455 247.14608095916435 428.13008745970455Q242.65435537987673 428.13008745970455 238.93095128125677 428.2482907644227Q235.20754718263677 428.3369432429612 233.93686165691724 428.3369432429612L233.93686165691724 428.3369432429612Q233.52315009040393 424.93859823231605 233.93686165691724 421.74710900492744L233.93686165691724 421.74710900492744Q243.9545917317758 420.47642347920794 248.20991070162722 419.20573795348844Q252.46522967147862 417.9055016015893 253.61771189248006 414.0934450244308Q254.79974493966103 410.2518376210927 255.00660072291768 401.9480554646466L255.00660072291768 401.9480554646466L259.05506390951246 302.59817784908773Q259.46877547602577 295.15136965184774 258.4049457335629 291.95988042445924Q257.3411159911001 288.7683911970706 252.76073793327387 287.5863581498897Q248.20991070162722 286.43387592888826 237.77846906025533 285.5769019696821L237.77846906025533 285.5769019696821Q237.57161327699868 282.1785569590369 237.77846906025533 278.98706773164827L237.77846906025533 278.98706773164827Q245.01842147423866 278.98706773164827 252.67208545473528 279.193923514905Q260.32574943523196 279.40077929816164 269.69336133414095 279.40077929816164L269.69336133414095 279.40077929816164Q272.88485056152956 279.40077929816164 278.2039992738438 279.40077929816164Q283.52314798615805 279.40077929816164 287.98532273926617 279.193923514905L287.98532273926617 279.193923514905Z " fill="#191919" transform="matrix(0.7571251283055478,0,0,0.7571251283055478,0,31.987471412261016)"/><path d="M637.0165913236195 428.9870662811037L637.0165913236195 428.9870662811037Q629.5736360372312 428.9870662811037 622.3479933139492 427.0312532131476Q615.0951865202788 425.0754401451916 607.8695437969968 421.3811265723857L607.8695437969968 421.3811265723857Q606.5113402775828 423.1196270772356 605.1259726877806 424.69514315975573Q603.7677691683667 426.2706592422759 602.5997141416708 428.00915974712564L602.5997141416708 428.00915974712564Q601.2143465518686 427.81901125440766 599.9376352436195 427.6288627616898Q598.6880880057587 427.4387142689718 597.7101814717806 427.2485657762538L597.7101814717806 427.2485657762538Q598.0904784572165 423.7172366257777 598.0904784572165 417.9584537034626Q598.0904784572165 412.1725067107593 598.0904784572165 404.3492544389352L598.0904784572165 404.3492544389352L598.0904784572165 308.32426561637095Q598.0904784572165 302.26667791978485 596.9224234305206 299.2243020362977Q595.7543684038246 296.2090902231988 592.3316955349015 294.9323789149497Q588.9090226659785 293.6556676067006 582.0636769281323 293.0580580581585L582.0636769281323 293.0580580581585Q581.4660673795902 290.53179951204856 582.0636769281323 287.7882284028325L582.0636769281323 287.7882284028325Q589.8869291999565 286.81032186885443 598.0904784572165 284.74585251934525Q606.2940277144767 282.7085472402244 614.9050380275609 278.98706959703026L614.9050380275609 278.98706959703026L618.2462186853191 280.15512462372624Q618.0289061222129 284.47421181546247 617.947413911048 289.93418996350647Q617.8387576294949 295.42133218193874 617.8387576294949 301.8592168639607L617.8387576294949 301.8592168639607L617.8387576294949 343.5289008395798Q625.8521583940371 336.3032581162977 633.4037699619785 333.3695385143636Q640.9282174595317 330.43581891242957 648.1538601828137 330.43581891242957L648.1538601828137 330.43581891242957Q660.4863481390921 330.43581891242957 669.1788506633411 336.9823598760047Q677.8985172579786 343.5289008395798 682.4892451535976 353.98706793906695Q687.0799730492166 364.4452350385542 687.0799730492166 376.39742600939667L687.0799730492166 376.39742600939667Q687.0799730492166 390.2782659778069 680.7235805783595 402.3119491598143Q674.3671881075023 414.3184682714333 663.121262966755 421.6527672762685Q651.8753378260078 428.9870662811037 637.0165913236195 428.9870662811037ZM617.6486091367769 352.139911152664L617.6486091367769 352.139911152664L617.6486091367769 411.19460017678136Q626.6399164352972 421.3811265723857 639.3527013770115 421.3811265723857L639.3527013770115 421.3811265723857Q649.3219152095096 421.3811265723857 655.4066669764841 415.89398435395344Q661.4642546730702 410.4068421355212 664.0991695007331 401.605683329719Q666.7340843283962 392.8045245239168 666.7340843283962 383.0254591841366L666.7340843283962 383.0254591841366Q666.7340843283962 373.4637064074626 664.0991695007331 364.1735943346714Q661.4642546730702 354.8834822618802 655.4881591876489 348.7172382837409Q649.5392277726158 342.55099430560176 639.1625528842935 342.55099430560176L639.1625528842935 342.55099430560176Q633.4852621731434 342.55099430560176 628.0252840250994 344.8871043589937Q622.5381418066671 347.25037848277395 617.6486091367769 352.139911152664ZM749.068381675268 426.8411047204297L749.068381675268 426.8411047204297Q743.608403527224 426.8411047204297 737.7409643233559 426.65095622771173Q731.8735251194878 426.46080773499375 725.0281793816416 426.46080773499375L725.0281793816416 426.46080773499375Q718.7532791219493 426.46080773499375 712.3968866510921 426.65095622771173Q706.040494180235 426.8411047204297 700.1730549763669 426.8411047204297L700.1730549763669 426.8411047204297Q699.602609498213 423.7172366257777 700.1730549763669 420.7835170238436L700.1730549763669 420.7835170238436Q706.8282522214951 420.40322003840765 709.9521203161471 419.5068057155945Q713.1031524811874 418.63755546316963 714.0810590151654 415.7038358612356Q715.0589655491434 412.7701162593015 715.0589655491434 406.3050675068912L715.0589655491434 406.3050675068912L715.0589655491434 362.4894219705981Q715.0589655491434 354.8834822618802 714.4613560006013 351.16200461868596Q713.8637464520592 347.4405269754918 710.8485346389602 345.97366717452485Q707.8061587554731 344.50680737355776 700.3903675394731 343.5289008395798L700.3903675394731 343.5289008395798Q699.7927579909309 340.7853297303636 700.3903675394731 338.44921967697167L700.3903675394731 338.44921967697167Q708.974213782169 336.8737035944516 716.7974660539933 334.53759354105966Q724.6207183258174 332.17431941727943 731.8735251194878 329.4579123784515L731.8735251194878 329.4579123784515L735.1875417068578 330.62596740514755Q734.9973932141398 336.68355510173365 734.8887369325867 341.95338475705967Q734.8072447214219 347.25037848277395 734.8072447214219 351.94976265994603L734.8072447214219 351.94976265994603L734.8072447214219 404.3492544389352Q734.8072447214219 411.98235821804144 735.6764949738467 415.29637480541135Q736.57290929666 418.63755546316963 739.5881211097588 419.5068057155945Q742.6304969932461 420.40322003840765 749.068381675268 420.7835170238436L749.068381675268 420.7835170238436Q749.6659912238101 423.7172366257777 749.068381675268 426.8411047204297ZM709.9521203161471 296.2090902231988L709.9521203161471 296.2090902231988Q709.9521203161471 290.53179951204856 713.9724027336123 286.6201733761365Q717.9926851510775 282.7085472402244 723.6428117918394 282.7085472402244L723.6428117918394 282.7085472402244Q729.1299540102716 282.7085472402244 733.1502364277368 286.6201733761365Q737.1433547748138 290.53179951204856 737.1433547748138 295.99177766009257L737.1433547748138 295.99177766009257Q737.1433547748138 301.0986228930889 733.2317286389017 305.28188973288377Q729.3201025029896 309.49232064306693 723.2625148064035 309.49232064306693L723.2625148064035 309.49232064306693Q717.7753725879712 309.49232064306693 713.8637464520592 305.5806945071548Q709.9521203161471 301.6690683712427 709.9521203161471 296.2090902231988ZM828.08866243477 428.60676929566773L828.08866243477 428.60676929566773Q815.1857290003377 428.60676929566773 811.8717124129677 415.7038358612356L811.8717124129677 415.7038358612356Q797.9637083741692 428.9870662811037 783.512422927605 428.9870662811037L783.512422927605 428.9870662811037Q773.5160450247187 428.9870662811037 766.5892070757076 423.03813486607066Q759.6352050563083 417.0620393806495 759.6352050563083 406.4952159996092L759.6352050563083 406.4952159996092Q759.6352050563083 380.68934913074463 812.2520093984036 374.03415188561644L812.2520093984036 374.03415188561644Q812.2520093984036 369.33476770844425 812.3606656799567 364.4452350385542Q812.4421578911216 359.555702368664 812.4421578911216 354.0957242206201L812.4421578911216 354.0957242206201Q812.4421578911216 347.25037848277395 807.4711330100666 343.42024455802664Q802.4729440586234 339.6172747036677 795.4374498280592 339.6172747036677L795.4374498280592 339.6172747036677Q790.3577686654512 339.6172747036677 786.826439514975 341.19279078618786L786.826439514975 341.19279078618786Q786.826439514975 345.6748624002538 784.8706264470189 350.374246577426Q782.9148133790629 355.07363075459807 779.4921405101398 358.3061551308033Q776.0694676412168 361.51151543662013 771.1799349713266 361.51151543662013L771.1799349713266 361.51151543662013Q766.8880118499786 361.51151543662013 764.4432455150336 359.066749101675Q761.9984791800886 356.62198276672996 761.9984791800886 353.11781768664207L761.9984791800886 353.11781768664207Q761.9984791800886 348.4184335094699 766.3990585829896 344.2080025992867Q770.7996379858907 339.99757168910355 777.6449837237369 336.9823598760047Q784.490329461583 333.93998399251745 791.9061206775831 332.17431941727943Q799.3490759639714 330.43581891242957 805.2165151678395 330.43581891242957L805.2165151678395 330.43581891242957Q812.4421578911216 330.43581891242957 818.6084018692608 333.0707337400926Q824.7746458473999 335.7056485677556 828.577615701759 340.8939860119168Q832.4077496265062 346.0823234560779 832.4077496265062 353.6882631647959L832.4077496265062 353.6882631647959Q832.4077496265062 358.3876473419681 832.1904370633999 365.91209483952116Q832.0002885706821 373.4637064074626 831.9187963595172 381.96606043899374Q831.8101400779641 390.46841447052486 831.6199915852461 398.1015182496311Q831.4298430925281 405.73462202873736 831.4298430925281 410.4068421355212L831.4298430925281 410.4068421355212Q831.4298430925281 416.6817423952135 836.8898212405721 416.6817423952135L836.8898212405721 416.6817423952135Q840.4211503910484 416.6817423952135 847.6467931143303 414.3184682714333L847.6467931143303 414.3184682714333Q848.4345511555905 415.29637480541135 848.7333559298615 416.49159390249565Q849.0321607041326 417.6596489291916 849.2223091968505 418.63755546316963L849.2223091968505 418.63755546316963Q844.3327765269604 423.90738511849565 838.9542905900813 426.2706592422759Q833.5758046532022 428.60676929566773 828.08866243477 428.60676929566773ZM811.8717124129677 410.4068421355212L811.8717124129677 410.4068421355212L812.2520093984036 381.0696461161806Q794.2693948013633 383.4329202399608 787.505541274682 388.70274989528684Q780.768851818389 393.99974362100113 780.768851818389 402.2032928782612L780.768851818389 402.2032928782612Q780.768851818389 409.04863861610727 784.3816731800299 412.66145997774834Q787.994494541671 416.2742813393894 793.4816367601032 416.2742813393894L793.4816367601032 416.2742813393894Q796.9858018401911 416.2742813393894 801.3863812430922 414.7259293272575Q805.7869606459933 413.15041324473736 811.8717124129677 410.4068421355212ZM916.100250492792 426.8411047204297L916.100250492792 426.8411047204297Q915.7199535073561 423.7172366257777 916.100250492792 420.7835170238436L916.100250492792 420.7835170238436Q922.1578381893781 420.40322003840765 925.0915577913121 419.5068057155945Q928.0252773932463 418.63755546316963 929.0031839272243 415.7038358612356Q929.9810904612024 412.7701162593015 929.9810904612024 406.3050675068912L929.9810904612024 406.3050675068912L929.9810904612024 366.8085091623344Q929.9810904612024 355.07363075459807 926.3682690995612 349.28768376189475Q922.7554477379202 343.5289008395798 911.998475864162 343.5289008395798L911.998475864162 343.5289008395798Q906.3211851530118 343.5289008395798 901.0513554976858 345.5933701890889Q895.7543617719715 347.6306754682098 889.5066255826674 353.30796617936005L889.5066255826674 353.30796617936005L889.5066255826674 404.3492544389352Q889.5066255826674 411.98235821804144 890.3758758350924 415.29637480541135Q891.2722901579056 418.63755546316963 894.2060097598396 419.5068057155945Q897.1397293617737 420.40322003840765 903.3874655510778 420.7835170238436L903.3874655510778 420.7835170238436Q903.7949266069019 423.7172366257777 903.3874655510778 426.8411047204297L903.3874655510778 426.8411047204297Q897.9274874030338 426.8411047204297 891.9513919176126 426.65095622771173Q885.9752964321912 426.46080773499375 879.129950694345 426.46080773499375L879.129950694345 426.46080773499375Q872.8822145050411 426.46080773499375 866.8246268084549 426.65095622771173Q860.7670391118689 426.8411047204297 854.8995999080007 426.8411047204297L854.8995999080007 426.8411047204297Q854.3019903594586 423.7172366257777 854.8995999080007 420.7835170238436L854.8995999080007 420.7835170238436Q861.5276330827406 420.40322003840765 864.6786652477809 419.5068057155945Q867.802533342433 418.63755546316963 868.780439876411 415.7038358612356Q869.758346410389 412.7701162593015 869.758346410389 406.3050675068912L869.758346410389 406.3050675068912L869.758346410389 362.4894219705981Q869.758346410389 354.8834822618802 869.0792446506821 351.16200461868596Q868.3729788205868 347.4405269754918 865.357767007488 345.97366717452485Q862.3153911240007 344.50680737355776 855.0897484007187 343.5289008395798L855.0897484007187 343.5289008395798Q854.4921388521765 340.7853297303636 855.0897484007187 338.44921967697167L855.0897484007187 338.44921967697167Q871.9043079710631 335.1080390192135 885.9752964321912 329.4579123784515L885.9752964321912 329.4579123784515L889.3164770899494 330.62596740514755L889.3164770899494 345.29456541481784Q898.3077843884697 337.0638520871695 906.9187947015539 333.7498354997996Q915.5298050146382 330.43581891242957 923.3530572864623 330.43581891242957L923.3530572864623 330.43581891242957Q936.2559907208946 330.43581891242957 943.1013364587408 338.04175862114755Q949.946682196587 345.6748624002538 949.946682196587 359.96316342448824L949.946682196587 359.96316342448824L949.946682196587 404.3492544389352Q949.946682196587 411.98235821804144 950.8159324490118 415.29637480541135Q951.7123467718251 418.63755546316963 954.646066373759 419.5068057155945Q957.5797859756932 420.40322003840765 964.0176706577153 420.7835170238436L964.0176706577153 420.7835170238436Q964.4251317135394 423.7172366257777 964.0176706577153 426.8411047204297L964.0176706577153 426.8411047204297Q958.1502314538469 426.8411047204297 952.58159702425 426.65095622771173Q947.0129625946528 426.46080773499375 939.5700073082646 426.46080773499375L939.5700073082646 426.46080773499375Q932.3443645849825 426.46080773499375 926.9658786481034 426.65095622771173Q921.5873927112242 426.8411047204297 916.100250492792 426.8411047204297ZM1052.4367197715615 407.69043509669336L1052.4367197715615 407.69043509669336Q1054.3925328395176 410.0265451500853 1055.3704393734956 412.1725067107593L1055.3704393734956 412.1725067107593Q1039.126325281305 428.9870662811037 1018.2099910823306 428.9870662811037L1018.2099910823306 428.9870662811037Q1004.7094480993563 428.9870662811037 995.120531252294 422.54918159908175Q985.5316144052316 416.0841328466714 980.3432769610705 405.32716097291313Q975.1821035872975 394.57018909915496 975.1821035872975 381.4771071720047L975.1821035872975 381.4771071720047Q975.1821035872975 367.18880614777026 981.0495427911657 355.6440762327519Q986.9169819950338 344.1265103881219 997.5652975872391 337.28116465027574Q1008.2136131794441 330.43581891242957 1022.1216172182427 330.43581891242957L1022.1216172182427 330.43581891242957Q1029.3472599415247 330.43581891242957 1036.790215227913 332.4731241915505Q1044.2060064439129 334.53759354105966 1049.2856876065212 338.8295166624076Q1054.3925328395176 343.14860385414386 1054.3925328395176 349.7766370288838L1054.3925328395176 349.7766370288838Q1054.3925328395176 355.07363075459807 1051.2415006744773 357.81720186381426Q1048.117632579825 360.5336089026421 1043.8257094584774 360.5336089026421L1043.8257094584774 360.5336089026421Q1037.958270254609 360.5336089026421 1033.8564956259788 355.155122965763Q1029.7275569269607 349.7766370288838 1029.7275569269607 340.7853297303636L1029.7275569269607 340.7853297303636Q1026.2233918468728 338.44921967697167 1020.3559526430046 338.44921967697167L1020.3559526430046 338.44921967697167Q1013.3204584124404 338.44921967697167 1008.5124179537153 341.95338475705967Q1003.7315415653782 345.4847139075358 1000.689165681891 351.35215311140394Q997.6739538687921 357.21959231527205 996.28858627899 363.95628177156516Q994.930382759576 370.7201352982464 994.930382759576 377.1580199802685L994.930382759576 377.1580199802685Q994.930382759576 388.1323044171329 998.6518604027702 396.71615065982894Q1002.3461739755761 405.32716097291313 1009.5989807692464 410.3253499243564Q1016.8246234925284 415.29637480541135 1027.5815953662866 415.29637480541135L1027.5815953662866 415.29637480541135Q1033.8564956259788 415.29637480541135 1039.805427041012 413.5578743005616Q1045.781522526433 411.79220972532346 1052.4367197715615 407.69043509669336ZM1134.5808686257155 428.60676929566773L1134.5808686257155 428.60676929566773Q1121.650771120895 428.60676929566773 1118.3367545335248 415.7038358612356L1118.3367545335248 415.7038358612356Q1104.4559145651147 428.9870662811037 1089.9774650481622 428.9870662811037L1089.9774650481622 428.9870662811037Q1080.0082512156641 428.9870662811037 1073.0542491962647 423.03813486607066Q1066.1274112472538 417.0620393806495 1066.1274112472538 406.4952159996092L1066.1274112472538 406.4952159996092Q1066.1274112472538 380.68934913074463 1118.7170515189607 374.03415188561644L1118.7170515189607 374.03415188561644Q1118.7170515189607 369.33476770844425 1118.825707800514 364.4452350385542Q1118.934364082067 359.555702368664 1118.934364082067 354.0957242206201L1118.934364082067 354.0957242206201Q1118.934364082067 347.25037848277395 1113.9361751306237 343.42024455802664Q1108.9379861791804 339.6172747036677 1101.9024919486164 339.6172747036677L1101.9024919486164 339.6172747036677Q1096.8228107860084 339.6172747036677 1093.2914816355321 341.19279078618786L1093.2914816355321 341.19279078618786Q1093.2914816355321 345.6748624002538 1091.3356685675762 350.374246577426Q1089.3798554996201 355.07363075459807 1085.957182630697 358.3061551308033Q1082.534509761774 361.51151543662013 1077.644977091884 361.51151543662013L1077.644977091884 361.51151543662013Q1073.3530539705357 361.51151543662013 1070.9082876355908 359.066749101675Q1068.4635213006457 356.62198276672996 1068.4635213006457 353.11781768664207L1068.4635213006457 353.11781768664207Q1068.4635213006457 348.4184335094699 1072.8641007035467 344.2080025992867Q1077.264680106448 339.99757168910355 1084.110025844294 336.9823598760047Q1090.9553715821403 333.93998399251745 1098.3983268685286 332.17431941727943Q1105.8141180845284 330.43581891242957 1111.6815572883966 330.43581891242957L1111.6815572883966 330.43581891242957Q1118.934364082067 330.43581891242957 1125.0734439898179 333.0707337400926Q1131.239687967957 335.7056485677556 1135.0698218927043 340.8939860119168Q1138.8727917470633 346.0823234560779 1138.8727917470633 353.6882631647959L1138.8727917470633 353.6882631647959Q1138.8727917470633 358.3876473419681 1138.6826432543453 365.91209483952116Q1138.4924947616273 373.4637064074626 1138.3838384800742 381.96606043899374Q1138.2751821985212 390.46841447052486 1138.0850337058032 398.1015182496311Q1137.8948852130852 405.73462202873736 1137.8948852130852 410.4068421355212L1137.8948852130852 410.4068421355212Q1137.8948852130852 416.6817423952135 1143.3820274315176 416.6817423952135L1143.3820274315176 416.6817423952135Q1146.8861925116055 416.6817423952135 1154.1389993052758 414.3184682714333L1154.1389993052758 414.3184682714333Q1154.8995932761477 415.29637480541135 1155.1983980504187 416.49159390249565Q1155.4972028246898 417.6596489291916 1155.6873513174078 418.63755546316963L1155.6873513174078 418.63755546316963Q1150.7978186475175 423.90738511849565 1145.4193327106386 426.2706592422759Q1140.0408467737593 428.60676929566773 1134.5808686257155 428.60676929566773ZM1118.3367545335248 410.4068421355212L1118.3367545335248 410.4068421355212L1118.7170515189607 381.0696461161806Q1100.7344369219204 383.4329202399608 1093.9977474656275 388.70274989528684Q1087.233893938946 393.99974362100113 1087.233893938946 402.2032928782612L1087.233893938946 402.2032928782612Q1087.233893938946 409.04863861610727 1090.8467153005872 412.66145997774834Q1094.4867007326166 416.2742813393894 1099.9466788806603 416.2742813393894L1099.9466788806603 416.2742813393894Q1103.4780080311366 416.2742813393894 1107.8785874340376 414.7259293272575Q1112.2791668369387 413.15041324473736 1118.3367545335248 410.4068421355212Z " fill="#" transform="matrix(0.7571251283055478,0,0,0.7571251283055478,0,31.987471412261016)"/></g></svg>